# xmcd
#
# Track frame offsets:
#	150
#	19320
#	41855
#	65395
#	84755
#	103615
#	123160
#	143255
#	170110
#
# Disc length: 2772 seconds
# Revision: 8
# Processed by: cddbd v1.5.2PL0 Copyright (c) Steve Scherf et al.
# Submitted via: dBpowerAMP V12.0
#
DISCID=6e0ad209
DTITLE=B.B. King - There is Always One More Time
DYEAR=1991
DGENRE=Blues
TTITLE0=I'm Moving on
TTITLE1=Back in L.A.
TTITLE2=The Blues Come Over me
TTITLE3=Fool me Once
TTITLE4=The Lowdown
TTITLE5=Mean And Evil
TTITLE6=Something up my Sleeve
TTITLE7=Roll, Roll, Roll
TTITLE8=There is Always One More Time
EXTD=
EXTT0=
EXTT1=
EXTT2=
EXTT3=
EXTT4=
EXTT5=
EXTT6=
EXTT7=
EXTT8=
PLAYORDER=
